<svg xmlns="http://www.w3.org/2000/svg" width="25" height="25" viewBox="0 0 25 25"><g fill="#000" fill-rule="evenodd"><path d="M7.026,2.009 C4.269,2.009 2.026,4.252 2.026,7.009 L2.026,17.009 C2.026,19.766 4.269,22.009 7.026,22.009 L17.026,22.009 C19.783,22.009 22.026,19.766 22.026,17.009 L22.026,7.009 C22.026,4.252 19.783,2.009 17.026,2.009 L7.026,2.009 Z M17.026,24.009 L7.026,24.009 C3.167,24.009 0.026,20.869 0.026,17.009 L0.026,7.009 C0.026,3.149 3.167,0.009 7.026,0.009 L17.026,0.009 C20.885,0.009 24.026,3.149 24.026,7.009 L24.026,17.009 C24.026,20.869 20.885,24.009 17.026,24.009 L17.026,24.009 Z"/><path d="M7.026,6.009 C6.474,6.009 6.026,6.458 6.026,7.009 L6.026,17.009 C6.026,17.56 6.474,18.009 7.026,18.009 L17.026,18.009 C17.578,18.009 18.026,17.56 18.026,17.009 L18.026,7.009 C18.026,6.458 17.578,6.009 17.026,6.009 L7.026,6.009 Z M17.026,20.009 L7.026,20.009 C5.372,20.009 4.026,18.663 4.026,17.009 L4.026,7.009 C4.026,5.355 5.372,4.009 7.026,4.009 L17.026,4.009 C18.68,4.009 20.026,5.355 20.026,7.009 L20.026,17.009 C20.026,18.663 18.68,20.009 17.026,20.009 L17.026,20.009 Z"/><path d="M17.026 8.009C17.026 8.561 16.578 9.009 16.026 9.009 15.474 9.009 15.026 8.561 15.026 8.009 15.026 7.457 15.474 7.009 16.026 7.009 16.578 7.009 17.026 7.457 17.026 8.009M12.026 10.009C10.923 10.009 10.026 10.906 10.026 12.009 10.026 13.112 10.923 14.009 12.026 14.009 13.129 14.009 14.026 13.112 14.026 12.009 14.026 10.906 13.129 10.009 12.026 10.009M12.026 16.009C9.82 16.009 8.026 14.215 8.026 12.009 8.026 9.803 9.82 8.009 12.026 8.009 14.232 8.009 16.026 9.803 16.026 12.009 16.026 14.215 14.232 16.009 12.026 16.009"/></g></svg>